<svg width="86" height="86" viewBox="0 0 86 86" fill="none" xmlns="http://www.w3.org/2000/svg">
<path d="M79.1932 19.8123C68.2052 11.3721 57.5476 18.2506 45.6599 15.8187C33.6863 13.369 28.916 5.21225 15.2784 8.97731C3.19779 12.3126 -4.13237 25.6842 2.50878 36.879C4.40128 40.0691 7.62527 42.4758 8.94282 46.0452C11.0681 51.8033 7.83305 56.224 8.46411 61.8828C11.0864 85.3948 47.0254 76.2875 60.2494 68.9724C80.9885 57.5002 95.0185 31.9684 79.1932 19.8123Z" fill="url(#paint0_linear)"/>
<ellipse cx="43" cy="69" rx="39" ry="10" fill="white"/>
<ellipse rx="17" ry="4" transform="matrix(1 0 0 -1 43 67)" fill="#A35CFF" fill-opacity="0.2"/>
<path d="M19.0001 40.9999C22.6001 51.7999 36.1667 62.4999 42.5001 66.4999C49.1668 62.1666 63.5001 50.7 67.5001 39.5C72.5001 25.5 62.5001 15.4999 60.5001 12.9999C58.5001 10.4999 50.0001 4.99989 35.0001 8.49989C20.0001 11.9999 14.5001 27.4999 19.0001 40.9999Z" fill="white"/>
<path d="M45.5195 6.92422C44.6902 6.84695 43.8503 6.80776 43 6.80664C28.8234 6.80664 17.2856 17.8153 17.2856 31.3889C17.2856 42.4227 25.8873 52.5731 33.1402 59.1726C38.4279 63.9832 43 66.9059 43 66.9059C43 66.9059 43.9651 66.2881 45.5195 65.1561C42.9676 63.2943 40.5173 61.2969 38.1793 59.1726C30.9264 52.5731 22.3247 42.4227 22.3247 31.3889C22.3247 18.629 32.5206 8.13679 45.5195 6.92422Z" fill="#F0E4FF"/>
<path d="M43 17.8438C40.3805 17.8438 37.8198 18.6205 35.6418 20.0758C33.4637 21.5311 31.7661 23.5996 30.7636 26.0197C29.7612 28.4398 29.4988 31.1028 30.0098 33.672C30.5208 36.2412 31.7821 38.6012 33.6344 40.4535C35.4866 42.3059 37.8465 43.5674 40.4156 44.0785C42.9848 44.5896 45.6478 44.3275 48.068 43.3251C50.4881 42.3228 52.5567 40.6253 54.0122 38.4474C55.4676 36.2694 56.2445 33.7088 56.2447 31.0893C56.241 27.5776 54.8444 24.2109 52.3614 21.7277C49.8783 19.2445 46.5117 17.8477 43 17.8438ZM43 42.3168C40.7791 42.3168 38.608 41.6582 36.7614 40.4243C34.9147 39.1903 33.4755 37.4365 32.6256 35.3846C31.7758 33.3326 31.5535 31.0748 31.9869 28.8965C32.4203 26.7183 33.4899 24.7174 35.0604 23.1471C36.631 21.5767 38.632 20.5074 40.8103 20.0743C42.9886 19.6412 45.2464 19.8638 47.2983 20.7139C49.3501 21.564 51.1037 23.0035 52.3374 24.8503C53.5711 26.6971 54.2294 28.8683 54.2291 31.0893C54.2255 34.0662 53.0412 36.9201 50.9361 39.0251C48.831 41.13 45.977 42.314 43 42.3173V42.3168Z" fill="#8526FF"/>
<path d="M35.9958 14.1187L35.3281 12.2168C34.2698 12.5884 33.2403 13.0376 32.248 13.5605L33.1887 15.3434C34.0929 14.8665 35.0312 14.4572 35.9958 14.1187Z" fill="#8526FF"/>
<path d="M29.7728 15.0781C24.0667 19.1037 20.6602 25.5491 20.6602 32.3198H22.6758C22.6758 26.2027 25.7632 20.3742 30.9348 16.7249L29.7728 15.0781Z" fill="#8526FF"/>
<path d="M74.4956 61.7808C69.042 60.0034 61.3823 58.7189 52.9276 58.164L52.7956 60.1754C61.0877 60.7194 68.5724 61.9703 73.8709 63.6973C78.742 65.2847 81.6489 67.2751 81.6489 69.0231C81.6489 71.5526 76.0402 73.8922 70.7912 75.238C63.3803 77.139 53.5106 78.1857 43 78.1857C32.4893 78.1857 22.6196 77.139 15.2087 75.2385C9.95966 73.8922 4.35101 71.5526 4.35101 69.0236C4.35101 67.2746 7.26292 65.2821 12.1406 63.694C17.447 61.9663 24.9411 60.7159 33.2425 60.1734L33.111 58.1621C24.647 58.7151 16.9779 59.9992 11.5166 61.7775C5.42433 63.76 2.33472 66.1984 2.33472 69.0231C2.33472 76.2836 23.2861 80.2013 43 80.2013C62.7138 80.2013 83.6652 76.2836 83.6652 69.0231C83.6652 66.2004 80.5796 63.7639 74.4956 61.7808Z" fill="#32E198"/>
<path d="M43.0001 5.79688C28.2655 5.79688 16.2781 17.2767 16.2781 31.3876C16.2781 35.9167 17.6746 40.6595 20.4284 45.4855C22.605 49.2984 25.6324 53.1763 29.4267 57.0097C33.3993 61.0186 37.7647 64.6182 42.4572 67.7542C42.6193 67.8578 42.8077 67.9129 43.0001 67.9129C43.1925 67.9129 43.3808 67.8578 43.5429 67.7542C48.2354 64.6182 52.6008 61.0186 56.5734 57.0097C60.3677 53.1763 63.3952 49.2999 65.5717 45.4855C68.3255 40.6598 69.722 35.9167 69.722 31.3876C69.722 17.2767 57.7346 5.79688 43.0001 5.79688ZM55.1685 55.5632C51.4347 59.3099 47.3611 62.7018 43.0001 65.6952C38.6494 62.7101 34.5851 59.3277 30.8593 55.5917C25.1268 49.8005 18.2937 40.9003 18.2937 31.3874C18.2937 18.3881 29.3778 7.8125 43.0001 7.8125C56.6223 7.8125 67.7064 18.3881 67.7064 31.3876C67.7064 40.8891 60.8887 49.779 55.1685 55.5632Z" fill="#8526FF"/>
<circle cx="43" cy="31" r="8" fill="#F0E4FF"/>
<defs>
<linearGradient id="paint0_linear" x1="-1.5139" y1="23.1152" x2="78.2504" y2="61.4817" gradientUnits="userSpaceOnUse">
<stop stop-color="#F4EBFF"/>
<stop offset="0.5834" stop-color="#E6D5F4"/>
<stop offset="0.997" stop-color="#FFD9EC"/>
</linearGradient>
</defs>
</svg>
