<svg width="86" height="86" viewBox="0 0 86 86" fill="none" xmlns="http://www.w3.org/2000/svg">
<g clip-path="url(#clip0)">
<path opacity="0.1" d="M62.7453 24.653C62.7452 24.653 62.745 24.653 62.7448 24.653V11.4785C62.7448 10.5513 61.994 9.79883 61.0651 9.79883H24.9351C24.0062 9.79883 23.2554 10.5513 23.2554 11.4785V79.9711C23.2554 80.5977 23.9172 81.0042 24.4765 80.7186L26.823 79.521C27.0632 79.3984 27.3471 79.3984 27.5873 79.521L30.772 81.1469C31.0122 81.2695 31.296 81.2695 31.5362 81.1469L34.7226 79.521C34.9611 79.3984 35.2467 79.3984 35.4852 79.521L38.6715 81.1469C38.9117 81.2695 39.1956 81.2695 39.4341 81.1469L42.6205 79.521C42.8607 79.3984 43.1446 79.3984 43.3848 79.521L46.5694 81.1469C46.8096 81.2695 47.0935 81.2695 47.3337 81.1469L50.5184 79.521C50.7586 79.3984 51.0424 79.3984 51.281 79.521L54.4673 81.1469C54.7058 81.2695 54.9897 81.2695 55.2299 81.1469L58.4146 79.521C58.6548 79.3984 58.9387 79.3984 59.1789 79.521L61.5237 80.7186C62.083 81.0042 62.7448 80.5977 62.7448 79.9695V42.548H62.7453C67.687 42.548 71.6929 38.542 71.6929 33.6005C71.6929 28.6589 67.687 24.653 62.7453 24.653Z" fill="#2626BC"/>
<path d="M79.1932 22.3911C68.2052 13.9434 57.5476 20.828 45.66 18.3939C33.6863 15.9421 28.916 7.77815 15.2784 11.5465C3.19779 14.8847 -4.13237 28.2682 2.50878 39.4729C4.40128 42.6658 7.62528 45.0746 8.94282 48.6471C11.0681 54.4103 7.83305 58.8349 8.46411 64.4987C11.0864 88.0314 47.0254 78.9161 60.2494 71.5945C80.9885 60.1122 95.0186 34.5579 79.1932 22.3911Z" fill="url(#paint0_linear)"/>
<path d="M62.7446 7.2793V75.7702C62.7446 76.3985 62.0828 76.8049 61.5235 76.5194L59.1786 75.3218C58.9384 75.1992 58.6545 75.1992 58.4144 75.3218L55.2297 76.9477C54.9895 77.0703 54.7056 77.0703 54.4671 76.9477L51.2807 75.3218C51.0422 75.1992 50.7583 75.1992 50.5181 75.3218L47.3335 76.9477C47.0933 77.0703 46.8094 77.0703 46.5692 76.9477L43.3845 75.3218C43.1443 75.1992 42.8604 75.1992 42.6203 75.3218L39.4339 76.9477C39.1954 77.0703 38.9115 77.0703 38.6713 76.9477L35.4849 75.3218C35.2464 75.1992 34.9609 75.1992 34.7224 75.3218L31.536 76.9477C31.2958 77.0703 31.0119 77.0703 30.7717 76.9477L27.587 75.3218C27.3468 75.1992 27.063 75.1992 26.8228 75.3218L24.4763 76.5194C23.9169 76.8049 23.2551 76.3984 23.2551 75.7719V7.2793C23.2551 6.35211 24.0059 5.59961 24.9348 5.59961H61.0649C61.9938 5.59961 62.7446 6.35211 62.7446 7.2793Z" fill="white"/>
<path d="M62.7446 24.2871V42.1825C57.8029 42.1825 53.7969 38.1764 53.7969 33.2348C53.7969 28.2932 57.8029 24.2871 62.7446 24.2871Z" fill="#DCFDEE"/>
<path d="M46.9511 77.8783C46.6887 77.8783 46.4267 77.8173 46.1877 77.6953L43.0021 76.0694L39.8166 77.6953C39.3382 77.9392 38.7673 77.939 38.2896 77.6953L35.1039 76.0694L31.9182 77.6953C31.44 77.9392 30.8692 77.9392 30.3912 77.6953L27.2048 76.0694L24.8583 77.2668C24.3334 77.5348 23.7202 77.5109 23.2176 77.2032C22.715 76.8955 22.415 76.36 22.415 75.7707V7.2793C22.415 5.89003 23.5453 4.75977 24.9346 4.75977H33.1605C33.6243 4.75977 34.0003 5.13585 34.0003 5.59961C34.0003 6.06337 33.6243 6.43945 33.1605 6.43945H24.9346C24.4715 6.43945 24.0947 6.81621 24.0947 7.2793V75.7706L26.4411 74.5731C26.9193 74.3292 27.4902 74.3292 27.9681 74.5731L31.1545 76.1991L34.3401 74.5731C34.8182 74.3291 35.3891 74.3289 35.8675 74.5731L39.0528 76.1989L42.2384 74.573C42.7164 74.3289 43.2873 74.3287 43.7657 74.573L46.9511 76.1987L50.1359 74.573C50.6145 74.3289 51.1852 74.3289 51.6633 74.573L54.8483 76.1989L58.0326 74.5731C58.511 74.3291 59.0818 74.3291 59.5598 74.573L61.9052 75.7701V43.3192C61.9052 42.8554 62.2812 42.4793 62.745 42.4793C63.2088 42.4793 63.5848 42.8554 63.5848 43.3192V75.7704C63.5848 76.3596 63.2849 76.8951 62.7823 77.2028C62.2799 77.5106 61.6663 77.5344 61.1416 77.2663L58.7964 76.0692L55.6119 77.695C55.1338 77.9392 54.5627 77.9394 54.0844 77.695L50.8997 76.0692L47.7148 77.695C47.4756 77.8173 47.2133 77.8783 46.9511 77.8783Z" fill="#8526FF"/>
<path d="M43.8398 36.5977H29.3071C28.8432 36.5977 28.4673 36.2216 28.4673 35.7578C28.4673 35.2941 28.8432 34.918 29.3071 34.918H43.8398C44.3037 34.918 44.6796 35.2941 44.6796 35.7578C44.6796 36.2216 44.3037 36.5977 43.8398 36.5977Z" fill="#8526FF"/>
<path d="M31.2421 33.2344H29.3071C28.8432 33.2344 28.4673 32.8583 28.4673 32.3945C28.4673 31.9308 28.8432 31.5547 29.3071 31.5547H31.2421C31.7061 31.5547 32.082 31.9308 32.082 32.3945C32.082 32.8583 31.7061 33.2344 31.2421 33.2344Z" fill="#32E198"/>
<path d="M47.1992 44.2266H29.3071C28.8432 44.2266 28.4673 43.8505 28.4673 43.3867C28.4673 42.923 28.8432 42.5469 29.3071 42.5469H47.1992C47.6631 42.5469 48.039 42.923 48.039 43.3867C48.039 43.8505 47.6631 44.2266 47.1992 44.2266Z" fill="#8526FF"/>
<path d="M31.2421 40.8613H29.3071C28.8432 40.8613 28.4673 40.4852 28.4673 40.0215C28.4673 39.5577 28.8432 39.1816 29.3071 39.1816H31.2421C31.7061 39.1816 32.082 39.5577 32.082 40.0215C32.082 40.4852 31.7061 40.8613 31.2421 40.8613Z" fill="#32E198"/>
<path d="M45.5195 51.8535H29.3071C28.8432 51.8535 28.4673 51.4774 28.4673 51.0137C28.4673 50.5499 28.8432 50.1738 29.3071 50.1738H45.5195C45.9834 50.1738 46.3593 50.5499 46.3593 51.0137C46.3593 51.4774 45.9834 51.8535 45.5195 51.8535Z" fill="#8526FF"/>
<path d="M31.2421 48.4883H29.3071C28.8432 48.4883 28.4673 48.1122 28.4673 47.6484C28.4673 47.1847 28.8432 46.8086 29.3071 46.8086H31.2421C31.7061 46.8086 32.082 47.1847 32.082 47.6484C32.082 48.1122 31.7061 48.4883 31.2421 48.4883Z" fill="#32E198"/>
<path d="M38.8007 59.4805H29.3071C28.8432 59.4805 28.4673 59.1044 28.4673 58.6406C28.4673 58.1769 28.8432 57.8008 29.3071 57.8008H38.8007C39.2647 57.8008 39.6406 58.1769 39.6406 58.6406C39.6406 59.1044 39.2647 59.4805 38.8007 59.4805Z" fill="#8526FF"/>
<path d="M46.487 59.4805H42.8723C42.4084 59.4805 42.0325 59.1044 42.0325 58.6406C42.0325 58.1769 42.4084 57.8008 42.8723 57.8008H46.487C46.9509 57.8008 47.3268 58.1769 47.3268 58.6406C47.3268 59.1044 46.9508 59.4805 46.487 59.4805Z" fill="#8526FF"/>
<path d="M31.2421 56.1152H29.3071C28.8432 56.1152 28.4673 55.7392 28.4673 55.2754C28.4673 54.8116 28.8432 54.4355 29.3071 54.4355H31.2421C31.7061 54.4355 32.082 54.8116 32.082 55.2754C32.082 55.7392 31.7061 56.1152 31.2421 56.1152Z" fill="#32E198"/>
<path d="M56.205 36.5996H53.4302C52.9662 36.5996 52.5903 36.2235 52.5903 35.7598C52.5903 35.296 52.9662 34.9199 53.4302 34.9199H56.205C56.6689 34.9199 57.0449 35.296 57.0449 35.7598C57.0449 36.2235 56.6688 36.5996 56.205 36.5996Z" fill="#8526FF"/>
<path d="M57.0455 35.7578C57.0455 36.2231 56.6692 36.5977 56.2056 36.5977H54.4503C54.2337 36.0618 54.0657 35.4991 53.9548 34.918H56.2056C56.6692 34.918 57.0455 35.2942 57.0455 35.7578Z" fill="#6583FE"/>
<path d="M56.205 44.2246H53.4302C52.9662 44.2246 52.5903 43.8485 52.5903 43.3848C52.5903 42.921 52.9662 42.5449 53.4302 42.5449H56.205C56.6689 42.5449 57.0449 42.921 57.0449 43.3848C57.0449 43.8485 56.6688 44.2246 56.205 44.2246Z" fill="#8526FF"/>
<path d="M56.205 51.8516H53.4302C52.9662 51.8516 52.5903 51.4755 52.5903 51.0117C52.5903 50.548 52.9662 50.1719 53.4302 50.1719H56.205C56.6689 50.1719 57.0449 50.548 57.0449 51.0117C57.0449 51.4755 56.6688 51.8516 56.205 51.8516Z" fill="#8526FF"/>
<path d="M56.205 59.4805H53.4302C52.9662 59.4805 52.5903 59.1044 52.5903 58.6406C52.5903 58.1769 52.9662 57.8008 53.4302 57.8008H56.205C56.6689 57.8008 57.0449 58.1769 57.0449 58.6406C57.0449 59.1044 56.6688 59.4805 56.205 59.4805Z" fill="#8526FF"/>
<path d="M55.927 56.1248C55.4632 56.1248 55.0872 55.7487 55.0872 55.2849V55.2656C55.0872 54.8019 55.4632 54.4258 55.927 54.4258C56.3908 54.4258 56.7668 54.8019 56.7668 55.2656V55.2849C56.7668 55.7489 56.3909 56.1248 55.927 56.1248Z" fill="#32E198"/>
<path d="M56.2049 69.2012H52.1501C51.6862 69.2012 51.3103 68.8251 51.3103 68.3613C51.3103 67.8976 51.6862 67.5215 52.1501 67.5215H56.2049C56.6688 67.5215 57.0447 67.8976 57.0447 68.3613C57.0447 68.8251 56.6687 69.2012 56.2049 69.2012Z" fill="#8526FF"/>
<path d="M35.0418 69.2012H29.3074C28.8434 69.2012 28.4675 68.8251 28.4675 68.3613C28.4675 67.8976 28.8434 67.5215 29.3074 67.5215H35.0418C35.5058 67.5215 35.8817 67.8976 35.8817 68.3613C35.8817 68.8251 35.5056 69.2012 35.0418 69.2012Z" fill="#8526FF"/>
<path d="M55.927 48.4978C55.4632 48.4978 55.0872 48.1217 55.0872 47.658V47.6387C55.0872 47.1749 55.4632 46.7988 55.927 46.7988C56.3908 46.7988 56.7668 47.1749 56.7668 47.6387V47.658C56.7668 48.1217 56.3909 48.4978 55.927 48.4978Z" fill="#32E198"/>
<path d="M55.927 40.8709C55.4632 40.8709 55.0872 40.4948 55.0872 40.031V40.0117C55.0872 39.548 55.4632 39.1719 55.927 39.1719C56.3908 39.1719 56.7668 39.548 56.7668 40.0117V40.031C56.7668 40.4948 56.3909 40.8709 55.927 40.8709Z" fill="#32E198"/>
<path d="M55.927 33.2439C55.4632 33.2439 55.0872 32.8678 55.0872 32.4041V32.3848C55.0872 31.921 55.4632 31.5449 55.927 31.5449C56.3908 31.5449 56.7668 31.921 56.7668 32.3848V32.4041C56.7668 32.8678 56.3909 33.2439 55.927 33.2439Z" fill="#01ECA5"/>
<path d="M62.7451 38.3482C67.6867 38.3482 71.6927 34.3422 71.6927 29.4007C71.6927 24.4591 67.6867 20.4531 62.7451 20.4531C57.8036 20.4531 53.7976 24.4591 53.7976 29.4007C53.7976 34.3422 57.8036 38.3482 62.7451 38.3482Z" fill="#32E198"/>
<path d="M63.5851 19.6519V7.2793C63.5851 5.89003 62.4548 4.75977 61.0655 4.75977H38.074C37.6102 4.75977 37.2341 5.13585 37.2341 5.59961C37.2341 6.06337 37.6102 6.43945 38.074 6.43945H61.0655C61.5286 6.43945 61.9054 6.81621 61.9054 7.2793V19.6519C56.9006 20.0797 52.9579 24.2871 52.9579 29.4009C52.9579 34.7978 57.3486 39.1883 62.7454 39.1883C68.1422 39.1883 72.5328 34.7978 72.5328 29.4009C72.5326 24.2871 68.5899 20.0794 63.5851 19.6519ZM62.7452 37.5085C58.2746 37.5085 54.6374 33.8714 54.6374 29.4008C54.6374 24.9301 58.2746 21.2929 62.7452 21.2929C67.2159 21.2929 70.8529 24.9301 70.8529 29.4008C70.8529 33.8714 67.2159 37.5085 62.7452 37.5085Z" fill="#8526FF"/>
<path d="M46.487 26.6582H39.5129C39.049 26.6582 38.6731 26.2821 38.6731 25.8184C38.6731 25.3546 39.049 24.9785 39.5129 24.9785H46.487C46.9509 24.9785 47.3268 25.3546 47.3268 25.8184C47.3268 26.2821 46.9508 26.6582 46.487 26.6582Z" fill="#8526FF"/>
<path d="M51.1061 20.4531H34.8938C34.4299 20.4531 34.054 20.077 34.054 19.6133C34.054 19.1495 34.4299 18.7734 34.8938 18.7734H51.1061C51.5701 18.7734 51.946 19.1495 51.946 19.6133C51.946 20.077 51.5699 20.4531 51.1061 20.4531Z" fill="#8526FF"/>
<path d="M55.3054 16.7676H30.6946C30.2307 16.7676 29.8547 16.3915 29.8547 15.9277C29.8547 15.464 30.2307 15.0879 30.6946 15.0879H55.3054C55.7693 15.0879 56.1452 15.464 56.1452 15.9277C56.1452 16.3915 55.7691 16.7676 55.3054 16.7676Z" fill="#8526FF"/>
<path d="M31.2421 13.082H29.3071C28.8432 13.082 28.4673 12.7059 28.4673 12.2422C28.4673 11.7784 28.8432 11.4023 29.3071 11.4023H31.2421C31.7061 11.4023 32.082 11.7784 32.082 12.2422C32.082 12.7059 31.7061 13.082 31.2421 13.082Z" fill="#32E198"/>
<path d="M69.0654 13.8356C68.4418 13.8356 67.8181 13.5981 67.3433 13.1234C66.3937 12.1739 66.3937 10.6288 67.3433 9.67907C68.2928 8.72937 69.8381 8.72937 70.7876 9.67907C71.7372 10.6288 71.7372 12.1739 70.7876 13.1234C70.3129 13.5981 69.6893 13.8356 69.0654 13.8356ZM69.0656 10.6457C68.8719 10.6457 68.6784 10.7193 68.5311 10.8668C68.2365 11.1614 68.2365 11.6409 68.5311 11.9357C68.8256 12.2303 69.3053 12.2305 69.6001 11.9357C69.8947 11.6411 69.8947 11.1616 69.6001 10.8668C69.4526 10.7193 69.2591 10.6457 69.0656 10.6457Z" fill="#32E198"/>
<path d="M73.2886 22.0485C72.6649 22.0485 72.0412 21.8111 71.5664 21.3363C71.1063 20.8762 70.853 20.2646 70.853 19.6141C70.853 18.9635 71.1063 18.352 71.5666 17.8919C72.5159 16.9424 74.0611 16.9422 75.0108 17.8919C75.4708 18.352 75.7241 18.9635 75.7241 19.6141C75.7241 20.2648 75.4708 20.8764 75.0106 21.3363C74.5361 21.8109 73.9122 22.0485 73.2886 22.0485ZM73.2886 18.8586C73.0951 18.8586 72.9014 18.9321 72.7541 19.0796C72.6112 19.2224 72.5327 19.4122 72.5327 19.6141C72.5327 19.816 72.6113 20.0058 72.7541 20.1486C73.0489 20.4433 73.5284 20.4433 73.8231 20.1486C73.966 20.0058 74.0444 19.816 74.0444 19.6141C74.0444 19.4122 73.9658 19.2224 73.8231 19.0796C73.6757 18.9321 73.4822 18.8586 73.2886 18.8586Z" fill="#FF7EB8"/>
<path d="M17.7004 39.7671C17.0768 39.7671 16.4529 39.5296 15.9783 39.0549C15.0287 38.1052 15.0287 36.56 15.9783 35.6105C16.9278 34.6612 18.4731 34.661 19.4226 35.6105C20.3722 36.5602 20.3722 38.1054 19.4226 39.0549C18.9479 39.5296 18.3241 39.7671 17.7004 39.7671ZM17.7004 36.5772C17.5069 36.5772 17.3133 36.6507 17.166 36.7982C16.8712 37.0928 16.8712 37.5724 17.166 37.8672C17.4606 38.162 17.9403 38.1618 18.2349 37.8672C18.5297 37.5726 18.5297 37.093 18.2349 36.7982C18.0876 36.6507 17.8941 36.5772 17.7004 36.5772Z" fill="#FF7EB8"/>
<path d="M16.6176 47.3162C16.4026 47.3162 16.1878 47.2343 16.0237 47.0703L15.0219 46.0686L14.0202 47.0703C13.6921 47.3982 13.1605 47.3982 12.8325 47.0703C12.5044 46.7423 12.5044 46.2105 12.8325 45.8826L14.4282 44.2869C14.7562 43.959 15.2878 43.959 15.6159 44.2869L17.2116 45.8826C17.5396 46.2107 17.5396 46.7425 17.2116 47.0703C17.0475 47.2343 16.8326 47.3162 16.6176 47.3162Z" fill="#6583FE"/>
<path d="M71.6928 71.6385C71.4778 71.6385 71.263 71.5565 71.0989 71.3926L70.0971 70.3908L69.0954 71.3926C68.7673 71.7205 68.2357 71.7205 67.9077 71.3926C67.5796 71.0645 67.5796 70.5328 67.9077 70.2049L69.5034 68.6092C69.8314 68.2813 70.363 68.2813 70.6911 68.6092L72.2868 70.2049C72.6148 70.5329 72.6148 71.0647 72.2868 71.3926C72.1227 71.5564 71.9078 71.6385 71.6928 71.6385Z" fill="#32E198"/>
<path d="M64.302 24.8738C64.2944 24.8609 64.2935 24.8444 64.3 24.8307C64.3065 24.8171 64.3191 24.8086 64.3328 24.8086H64.9512C64.9639 24.8086 64.9759 24.8162 64.9826 24.8285L65.5048 25.774L66.0269 24.8285C66.0337 24.8162 66.0456 24.8086 66.0585 24.8086H66.6675C66.6811 24.8086 66.6936 24.8171 66.7002 24.8306C66.7069 24.8442 66.7062 24.8606 66.6984 24.8735L65.831 26.3579C65.8241 26.3697 65.8124 26.3767 65.8001 26.3767H65.2094C65.1973 26.3767 65.1855 26.3698 65.1786 26.3581L64.302 24.8738ZM66.9983 31.8769L66.8138 31.171C66.8107 31.1586 66.8026 31.1487 66.7922 31.1441C66.7814 31.1391 66.7697 31.1401 66.7597 31.1465C66.594 31.253 66.2997 31.3798 65.8371 31.3798C64.7728 31.3798 64.2964 30.4467 64.2964 29.5219C64.2964 28.4231 64.9045 27.685 65.8094 27.685C66.257 27.685 66.551 27.8116 66.7912 27.9305C66.8011 27.9355 66.8128 27.9353 66.8228 27.9296C66.8328 27.924 66.8397 27.9136 66.8424 27.9015L66.9808 27.2164C66.9843 27.1978 66.9766 27.1787 66.9614 27.1699C66.7295 27.0336 66.2497 26.8746 65.6616 26.8746C64.3093 26.8746 63.4004 27.9217 63.4004 29.4805C63.4004 31.0759 64.4022 32.1903 65.8369 32.1903C66.3337 32.1903 66.7627 32.048 66.9793 31.9265C66.9955 31.9173 67.0036 31.8964 66.9983 31.8769ZM60.8747 28.5286L63.3811 25.002C63.3981 24.9782 63.4009 24.946 63.3882 24.9198C63.3759 24.893 63.3511 24.8767 63.3236 24.8767H62.2687C62.2467 24.8767 62.2244 24.8886 62.2111 24.9076L59.9946 28.0727V24.9546C59.9946 24.9116 59.9623 24.8767 59.9223 24.8767H59.0726C59.0325 24.8767 59 24.9116 59 24.9546V31.9272C59 31.9705 59.0324 32.0053 59.0726 32.0053H59.9223C59.9622 32.0053 59.9946 31.9705 59.9946 31.9272V29.3452L60.2244 29.3408L62.4767 31.9803C62.4903 31.9961 62.5097 32.0053 62.5297 32.0053H63.5358C63.5636 32.0053 63.5897 31.9875 63.6019 31.9598C63.6136 31.9322 63.6092 31.8998 63.5902 31.8759L60.8747 28.5286Z" fill="white"/>
</g>
<defs>
<linearGradient id="paint0_linear" x1="-1.5139" y1="25.6969" x2="78.2768" y2="64.0423" gradientUnits="userSpaceOnUse">
<stop stop-color="#F4EBFF"/>
<stop offset="0.5834" stop-color="#E6D5F4"/>
<stop offset="0.997" stop-color="#FFD9EC"/>
</linearGradient>
<clipPath id="clip0">
<rect width="86" height="86" fill="white"/>
</clipPath>
</defs>
</svg>
