<svg width="86" height="86" viewBox="0 0 86 86" fill="none" xmlns="http://www.w3.org/2000/svg">
<path d="M79.1932 22.3911C68.2052 13.9434 57.5476 20.828 45.66 18.3939C33.6863 15.9421 28.916 7.77815 15.2784 11.5465C3.19779 14.8847 -4.13237 28.2682 2.50878 39.4729C4.40128 42.6658 7.62528 45.0746 8.94282 48.6471C11.0681 54.4103 7.83305 58.8349 8.46411 64.4987C11.0864 88.0314 47.0254 78.9161 60.2494 71.5945C80.9885 60.1122 95.0186 34.5579 79.1932 22.3911Z" fill="url(#paint0_linear)"/>
<rect x="17" y="11" width="52" height="44" fill="white"/>
<rect x="30" y="69" width="26" height="6" fill="#F0E4FF"/>
<rect x="11" y="60" width="65" height="9" rx="2" fill="white"/>
<rect x="11" y="26" width="65" height="35" rx="2" fill="#F0E4FF"/>
<rect x="17" y="19" width="52" height="37" fill="white"/>
<path d="M71.5161 24.3548H70.4194V9H15.5806V24.3548H14.4839C11.4602 24.3548 9 26.8151 9 29.8387V64.9355C9 67.9591 11.4602 70.4194 14.4839 70.4194H28.7419V74.8064H24.3548V77H61.6452V74.8064H57.2581V70.4194H71.5161C74.5398 70.4194 77 67.9591 77 64.9355V29.8387C77 26.8151 74.5398 24.3548 71.5161 24.3548ZM17.7742 19.9677H68.2258V55.0645H17.7742V19.9677ZM68.2258 11.1935V17.7742H17.7742V11.1935H68.2258ZM14.4839 26.5484H15.5806V57.2581H70.4194V26.5484H71.5161C73.33 26.5484 74.8064 28.0249 74.8064 29.8387V59.4516H11.1935V29.8387C11.1935 28.0249 12.67 26.5484 14.4839 26.5484ZM55.0645 74.8064H30.9355V70.4194H55.0645V74.8064ZM71.5161 68.2258H14.4839C12.67 68.2258 11.1935 66.7493 11.1935 64.9355V61.6452H74.8064V64.9355C74.8064 66.7493 73.33 68.2258 71.5161 68.2258Z" fill="#8526FF"/>
<path d="M40 51H20V53H40V51Z" fill="#8526FF"/>
<path d="M40 37H20V39H40V37Z" fill="#8526FF"/>
<path d="M66 22H44V24H66V22Z" fill="#8526FF"/>
<path d="M40 42H20V44H40V42Z" fill="#8526FF"/>
<path d="M66 27H44V29H66V27Z" fill="#8526FF"/>
<path d="M25.85 27.0603L27.3683 27.4936C28.329 27.7685 29 28.6583 29 29.6575V31H20V29.6575C20 28.6583 20.671 27.7685 21.6317 27.4936L23.15 27.0598V26.9401C22.5893 26.5179 22.25 25.8528 22.25 25.1493V24.2492C22.25 23.6205 22.5159 23.0155 22.9799 22.5908C23.4429 22.166 24.0698 21.9539 24.6997 22.0084C25.8496 22.1084 26.75 23.1335 26.75 24.3433V25.1498C26.75 25.8532 26.4107 26.5179 25.85 26.9405V27.0603Z" fill="#8526FF"/>
<path d="M40 46H20V48H40V46Z" fill="#32E198"/>
<path d="M66 31H44V33H66V31Z" fill="#32E198"/>
<path d="M30 33H20V35H30V33Z" fill="#32E198"/>
<path d="M66 43H56V45H66V43Z" fill="#32E198"/>
<path d="M66 46H60V48H66V46Z" fill="#8526FF"/>
<path d="M50 41H44V35H50V41Z" fill="#32E198"/>
<path d="M58 41H52V35H58V41Z" fill="#32E198"/>
<path d="M66 41H60V35H66V41Z" fill="#32E198"/>
<path d="M19.9678 15.5803H22.1613V13.3867H19.9678V15.5803Z" fill="#32E198"/>
<path d="M24.3549 15.5803H26.5484V13.3867H24.3549V15.5803Z" fill="#32E198"/>
<path d="M28.742 15.5803H30.9355V13.3867H28.742V15.5803Z" fill="#32E198"/>
<path d="M15 66.1935H17.1935V64H15V66.1935Z" fill="#32E198"/>
<path d="M19.3871 66.1935H21.5806V64H19.3871V66.1935Z" fill="#32E198"/>
<path d="M23.7742 66.1935H25.9677V64H23.7742V66.1935Z" fill="#32E198"/>
<rect x="45" y="36" width="4" height="4" fill="white"/>
<rect x="53" y="36" width="4" height="4" fill="white"/>
<rect x="61" y="36" width="4" height="4" fill="white"/>
<defs>
<linearGradient id="paint0_linear" x1="-1.5139" y1="25.6969" x2="78.2768" y2="64.0423" gradientUnits="userSpaceOnUse">
<stop stop-color="#F4EBFF"/>
<stop offset="0.5834" stop-color="#E6D5F4"/>
<stop offset="0.997" stop-color="#FFD9EC"/>
</linearGradient>
</defs>
</svg>
