<svg width="86" height="86" viewBox="0 0 86 86" fill="none" xmlns="http://www.w3.org/2000/svg">
<path d="M79.1932 22.3911C68.2052 13.9434 57.5476 20.828 45.66 18.3939C33.6863 15.9421 28.916 7.77815 15.2784 11.5465C3.19779 14.8847 -4.13237 28.2682 2.50878 39.4729C4.40128 42.6658 7.62528 45.0746 8.94282 48.6471C11.0681 54.4103 7.83305 58.8349 8.46411 64.4987C11.0864 88.0314 47.0254 78.9161 60.2494 71.5945C80.9885 60.1122 95.0186 34.5579 79.1932 22.3911Z" fill="url(#paint0_linear)"/>
<rect x="12" y="11" width="63" height="53" rx="3" fill="white"/>
<path d="M65.0616 45H24.9384C23.6287 45 22.3726 45.4741 21.4464 46.318C20.5203 47.1619 20 48.3065 20 49.5C20 50.6935 20.5203 51.8381 21.4464 52.682C22.3726 53.5259 23.6287 54 24.9384 54H65.0616C66.3713 54 67.6274 53.5259 68.5536 52.682C69.4797 51.8381 70 50.6935 70 49.5C70 48.3065 69.4797 47.1619 68.5536 46.318C67.6274 45.4741 66.3713 45 65.0616 45Z" fill="#F0E4FF"/>
<path d="M16.0666 61.146V13.8528C16.0667 13.478 16.1426 13.107 16.29 12.7608C16.4374 12.4147 16.6535 12.1001 16.9259 11.8352C17.1983 11.5703 17.5217 11.3602 17.8776 11.2169C18.2334 11.0736 18.6149 10.9999 19 11H14.9334C14.5482 10.9999 14.1668 11.0736 13.811 11.2169C13.4551 11.3602 13.1317 11.5703 12.8593 11.8352C12.5869 12.1001 12.3708 12.4147 12.2234 12.7608C12.0759 13.107 12 13.478 12 13.8528V61.146C12.0001 61.9029 12.3091 62.6288 12.8592 63.164C13.4093 63.6992 14.1554 63.9999 14.9334 64H19C18.222 63.9999 17.476 63.6992 16.9259 63.164C16.3758 62.6288 16.0667 61.9029 16.0666 61.146Z" fill="#F0E4FF"/>
<path d="M71.3959 10.6797H14.6043C13.6427 10.6807 12.7209 11.0631 12.0409 11.7429C11.361 12.4228 10.9784 13.3446 10.9773 14.3061V61.3692C10.9782 62.3298 11.3598 63.251 12.0387 63.9307C12.7175 64.6104 13.6381 64.9933 14.5988 64.9955L45.2392 65.2122L45.2504 63.6373L14.6043 63.4205C14.0604 63.4199 13.5389 63.2037 13.1542 62.8193C12.7695 62.4348 12.553 61.9134 12.5522 61.3696V23.8538H73.448V61.3696C73.4473 61.9135 73.2309 62.435 72.8462 62.8196C72.4615 63.2042 71.9399 63.4205 71.3959 63.421C71.3816 63.421 71.3673 63.421 71.353 63.4223L67.3809 63.639L67.4666 65.2114L71.4186 64.9959C72.3762 64.9889 73.2922 64.6038 73.9673 63.9247C74.6423 63.2455 75.0217 62.3271 75.0229 61.3696V14.3061C75.0218 13.3446 74.6393 12.4228 73.9593 11.7429C73.2794 11.0631 72.3575 10.6807 71.3959 10.6797ZM12.5522 22.2789V14.3061C12.5528 13.7621 12.7693 13.2406 13.154 12.856C13.5387 12.4714 14.0603 12.2551 14.6043 12.2546H71.3959C71.9399 12.2551 72.4615 12.4714 72.8462 12.856C73.2309 13.2406 73.4474 13.7621 73.448 14.3061V22.2789H12.5522Z" fill="#8526FF"/>
<path d="M17.5657 14.1504C16.9687 14.1504 16.385 14.3274 15.8887 14.6591C15.3923 14.9908 15.0054 15.4622 14.7769 16.0138C14.5484 16.5654 14.4886 17.1723 14.6051 17.7578C14.7216 18.3434 15.0091 18.8812 15.4312 19.3034C15.8534 19.7255 16.3912 20.013 16.9768 20.1295C17.5623 20.2459 18.1692 20.1862 18.7208 19.9577C19.2724 19.7292 19.7438 19.3423 20.0755 18.8459C20.4072 18.3495 20.5842 17.7659 20.5842 17.1689C20.5834 16.3686 20.2651 15.6013 19.6992 15.0354C19.1333 14.4695 18.366 14.1512 17.5657 14.1504ZM17.5657 18.6115C17.2801 18.6115 17.001 18.5269 16.7636 18.3682C16.5262 18.2096 16.3412 17.9841 16.2319 17.7203C16.1226 17.4566 16.094 17.1663 16.1498 16.8862C16.2055 16.6062 16.343 16.349 16.5448 16.1471C16.7467 15.9452 17.004 15.8077 17.284 15.752C17.5641 15.6963 17.8543 15.7249 18.1181 15.8341C18.3819 15.9434 18.6074 16.1284 18.766 16.3658C18.9246 16.6032 19.0093 16.8824 19.0093 17.1679C19.0089 17.5506 18.8567 17.9176 18.5861 18.1883C18.3154 18.4589 17.9484 18.6112 17.5657 18.6115Z" fill="#8526FF"/>
<path d="M25.5232 14.1504C24.9262 14.1504 24.3426 14.3274 23.8462 14.6591C23.3498 14.9908 22.9629 15.4622 22.7344 16.0138C22.5059 16.5654 22.4462 17.1723 22.5626 17.7578C22.6791 18.3434 22.9666 18.8812 23.3888 19.3034C23.8109 19.7255 24.3488 20.013 24.9343 20.1295C25.5198 20.2459 26.1268 20.1862 26.6783 19.9577C27.2299 19.7292 27.7013 19.3423 28.033 18.8459C28.3647 18.3495 28.5417 17.7659 28.5417 17.1689C28.5409 16.3686 28.2226 15.6013 27.6567 15.0354C27.0908 14.4695 26.3235 14.1512 25.5232 14.1504ZM25.5232 18.6115C25.2377 18.6115 24.9585 18.5269 24.7211 18.3682C24.4837 18.2096 24.2987 17.9841 24.1894 17.7203C24.0802 17.4566 24.0516 17.1663 24.1073 16.8862C24.163 16.6062 24.3005 16.349 24.5024 16.1471C24.7043 15.9452 24.9615 15.8077 25.2415 15.752C25.5216 15.6963 25.8119 15.7249 26.0756 15.8341C26.3394 15.9434 26.5649 16.1284 26.7235 16.3658C26.8822 16.6032 26.9668 16.8824 26.9668 17.1679C26.9665 17.5506 26.8142 17.9176 26.5436 18.1883C26.2729 18.4589 25.9059 18.6112 25.5232 18.6115Z" fill="#8526FF"/>
<path d="M33.4807 14.1504C32.8837 14.1504 32.3001 14.3274 31.8037 14.6591C31.3073 14.9908 30.9204 15.4622 30.6919 16.0138C30.4635 16.5654 30.4037 17.1723 30.5202 17.7578C30.6366 18.3434 30.9241 18.8812 31.3463 19.3034C31.7684 19.7255 32.3063 20.013 32.8918 20.1295C33.4774 20.2459 34.0843 20.1862 34.6359 19.9577C35.1874 19.7292 35.6589 19.3423 35.9905 18.8459C36.3222 18.3495 36.4993 17.7659 36.4993 17.1689C36.4984 16.3686 36.1801 15.6013 35.6142 15.0354C35.0483 14.4695 34.281 14.1512 33.4807 14.1504ZM33.4807 18.6115C33.1952 18.6115 32.9161 18.5269 32.6787 18.3682C32.4412 18.2096 32.2562 17.9841 32.1469 17.7203C32.0377 17.4566 32.0091 17.1663 32.0648 16.8862C32.1205 16.6062 32.258 16.349 32.4599 16.1471C32.6618 15.9452 32.919 15.8077 33.1991 15.752C33.4791 15.6963 33.7694 15.7249 34.0332 15.8341C34.297 15.9434 34.5224 16.1284 34.6811 16.3658C34.8397 16.6032 34.9244 16.8824 34.9244 17.1679C34.924 17.5507 34.7718 17.9177 34.5011 18.1883C34.2305 18.459 33.8635 18.6112 33.4807 18.6115Z" fill="#8526FF"/>
<path d="M70.8145 16.2305H45.2313C45.0225 16.2305 44.8222 16.3134 44.6745 16.4611C44.5268 16.6088 44.4438 16.8091 44.4438 17.0179C44.4438 17.2268 44.5268 17.4271 44.6745 17.5747C44.8222 17.7224 45.0225 17.8054 45.2313 17.8054H70.8145C71.0233 17.8054 71.2236 17.7224 71.3713 17.5747C71.519 17.4271 71.6019 17.2268 71.6019 17.0179C71.6019 16.8091 71.519 16.6088 71.3713 16.4611C71.2236 16.3134 71.0233 16.2305 70.8145 16.2305Z" fill="#8526FF"/>
<path d="M36.7801 32H67.2199C67.4268 32 67.6252 31.8946 67.7715 31.7071C67.9178 31.5196 68 31.2652 68 31C68 30.7348 67.9178 30.4804 67.7715 30.2929C67.6252 30.1054 67.4268 30 67.2199 30H36.7801C36.5732 30 36.3748 30.1054 36.2285 30.2929C36.0822 30.4804 36 30.7348 36 31C36 31.2652 36.0822 31.5196 36.2285 31.7071C36.3748 31.8946 36.5732 32 36.7801 32Z" fill="#32E198"/>
<path d="M53.5 48.5L51.5 49.5V64.5L48 61.5H45.5L48 71.5L51 74L61.5 74.5L65 72.5V62H62L61.5 61H58.5V60H55.5L55 50L53.5 48.5Z" fill="white"/>
<path d="M36.7801 39H67.2199C67.4268 39 67.6252 38.8946 67.7715 38.7071C67.9178 38.5196 68 38.2652 68 38C68 37.7348 67.9178 37.4804 67.7715 37.2929C67.6252 37.1054 67.4268 37 67.2199 37H36.7801C36.5732 37 36.3748 37.1054 36.2285 37.2929C36.0822 37.4804 36 37.7348 36 38C36 38.2652 36.0822 38.5196 36.2285 38.7071C36.3748 38.8946 36.5732 39 36.7801 39Z" fill="#32E198"/>
<path d="M53.4524 48C52.7844 48.0009 52.144 48.2636 51.6718 48.7303C51.1996 49.1971 50.9341 49.8299 50.9336 50.4898V63.2766L50.8858 63.2082C50.3737 62.475 49.6891 61.8756 48.8907 61.4616C48.0923 61.0475 47.2041 60.8312 46.3024 60.8313C46.0851 60.8313 45.8713 60.885 45.6804 60.9876C45.4895 61.0901 45.3276 61.2382 45.2094 61.4184C45.0912 61.5986 45.0206 61.8051 45.0039 62.0191C44.9871 62.2332 45.0249 62.448 45.1137 62.6439L45.223 62.8856C45.7284 64.0021 46.1361 65.1592 46.4419 66.3443L47.8193 71.6916C47.8215 71.7002 47.8239 71.7089 47.8265 71.7176C48.1102 72.6685 48.6988 73.5028 49.5038 74.0947C50.3089 74.6867 51.2867 75.0044 52.2902 75H61.3395C62.5753 74.9983 63.76 74.5125 64.6337 73.6491C65.5074 72.7857 65.9988 71.6152 66 70.3943V63.1575C66.0005 62.7404 65.8874 62.3309 65.6726 61.9719C65.4577 61.6129 65.1489 61.3177 64.7787 61.1172C64.4085 60.9168 63.9905 60.8184 63.5686 60.8326C63.1467 60.8467 62.7364 60.9728 62.3808 61.1976C62.2444 60.8996 62.0455 60.6337 61.7973 60.4174C61.5491 60.2011 61.2572 60.0394 60.9409 59.9429C60.6247 59.8464 60.2913 59.8173 59.9629 59.8576C59.6344 59.898 59.3184 60.0067 59.0357 60.1767C58.9126 59.9016 58.7344 59.6539 58.5119 59.4486C58.2894 59.2433 58.0271 59.0846 57.7408 58.9821C57.4546 58.8796 57.1503 58.8354 56.8463 58.8521C56.5422 58.8689 56.2448 58.9463 55.9719 59.0796V50.4895C55.9713 49.8295 55.7057 49.1967 55.2333 48.73C54.761 48.2633 54.1205 48.0007 53.4524 48ZM55.9989 61.0884C55.9989 60.8347 56.1009 60.5914 56.2825 60.4121C56.464 60.2327 56.7103 60.132 56.967 60.132C57.2238 60.132 57.47 60.2327 57.6516 60.4121C57.8331 60.5914 57.9351 60.8347 57.9351 61.0884V61.815C57.9184 61.9269 57.9099 62.0399 57.9098 62.153V64.6698C57.9098 64.8398 57.9782 65.0029 58.0999 65.1231C58.2216 65.2434 58.3867 65.3109 58.5588 65.3109H58.5715C58.5715 65.3109 58.5798 65.3109 58.5842 65.3109C58.7563 65.3109 58.9214 65.2434 59.0431 65.1231C59.1648 65.0029 59.2332 64.8398 59.2332 64.6698V61.9297C59.2884 61.6818 59.4344 61.4629 59.643 61.3149C59.8517 61.167 60.1084 61.1004 60.3638 61.1281C60.6191 61.1557 60.8551 61.2756 61.0264 61.4647C61.1977 61.6538 61.2922 61.8988 61.2917 62.1526V65.3343C61.2917 65.5044 61.3601 65.6674 61.4818 65.7877C61.6035 65.9079 61.7686 65.9755 61.9407 65.9755C62.1129 65.9755 62.278 65.9079 62.3997 65.7877C62.5214 65.6674 62.5898 65.5044 62.5898 65.3343V63.1575C62.5883 63.0196 62.6146 62.8829 62.667 62.7551C62.7195 62.6273 62.797 62.5111 62.8952 62.4131C62.9934 62.3151 63.1102 62.2374 63.239 62.1843C63.3678 62.1312 63.506 62.1039 63.6455 62.1039C63.7851 62.1039 63.9233 62.1312 64.0521 62.1843C64.1809 62.2374 64.2977 62.3151 64.3959 62.4131C64.4941 62.5111 64.5716 62.6273 64.624 62.7551C64.6765 62.8829 64.7027 63.0196 64.7013 63.1575V70.3943C64.7005 71.2751 64.3461 72.1195 63.7159 72.7425C63.0857 73.3655 62.2311 73.7162 61.3395 73.7176H52.2902C51.5684 73.7208 50.8649 73.4929 50.2851 73.0682C49.7053 72.6434 49.2803 72.0446 49.0737 71.3613L47.7 66.0278C47.3761 64.7719 46.9441 63.5457 46.4087 62.3625L46.3024 62.1136C46.994 62.1135 47.6753 62.2794 48.2877 62.597C48.9 62.9145 49.4252 63.3742 49.8179 63.9366L50.934 65.534V67.9152C50.934 68.0852 51.0024 68.2483 51.1241 68.3685C51.2458 68.4888 51.4109 68.5563 51.583 68.5563C51.7552 68.5563 51.9202 68.4888 52.042 68.3685C52.1637 68.2483 52.232 68.0852 52.232 67.9152V50.4895C52.232 50.1696 52.3607 49.8629 52.5896 49.6367C52.8186 49.4106 53.1291 49.2835 53.4528 49.2835C53.7766 49.2835 54.0871 49.4106 54.3161 49.6367C54.545 49.8629 54.6736 50.1696 54.6736 50.4895V61.8708C54.6737 61.9334 54.683 61.9957 54.7013 62.0556V64.6693C54.7013 64.8394 54.7697 65.0024 54.8914 65.1227C55.0131 65.2429 55.1782 65.3105 55.3503 65.3105C55.5225 65.3105 55.6875 65.2429 55.8093 65.1227C55.931 65.0024 55.9994 64.8394 55.9994 64.6693L55.9989 61.0884Z" fill="#8526FF"/>
<rect x="21" y="27" width="11" height="13" rx="3" fill="#8526FF"/>
<rect x="23" y="29" width="7" height="9" rx="3" fill="#32E198"/>
<defs>
<linearGradient id="paint0_linear" x1="-1.5139" y1="25.6969" x2="78.2768" y2="64.0423" gradientUnits="userSpaceOnUse">
<stop stop-color="#F4EBFF"/>
<stop offset="0.5834" stop-color="#E6D5F4"/>
<stop offset="0.997" stop-color="#FFD9EC"/>
</linearGradient>
</defs>
</svg>
