<svg width="86" height="86" viewBox="0 0 86 86" fill="none" xmlns="http://www.w3.org/2000/svg">
<path d="M79.1932 22.3911C68.2052 13.9434 57.5476 20.828 45.66 18.3939C33.6863 15.9421 28.916 7.77815 15.2784 11.5465C3.19779 14.8847 -4.13237 28.2682 2.50878 39.4729C4.40128 42.6658 7.62528 45.0746 8.94282 48.6471C11.0681 54.4103 7.83305 58.8349 8.46411 64.4987C11.0864 88.0314 47.0254 78.9161 60.2494 71.5945C80.9885 60.1122 95.0186 34.5579 79.1932 22.3911Z" fill="url(#paint0_linear)"/>
<path opacity="0.1" d="M72 38.3451C72 46.914 67.5442 54.4487 60.8103 58.7866C59.7956 59.4409 58.9485 60.3198 58.3524 61.3647L49.5538 76.8101C49.5342 76.8443 49.514 76.877 49.4914 76.9102C48.5514 78.3956 46.3304 78.3629 45.4459 76.8101L36.6472 61.3647C36.0527 60.3208 35.207 59.4424 34.1938 58.7905C27.3631 54.3921 22.8754 46.7055 23.0026 37.9862C23.1928 24.8788 33.9604 14.1839 47.151 14.0023C60.8796 13.8191 72 24.8124 72 38.3451Z" fill="#2626BC"/>
<path d="M70.0001 37.926C70.0001 46.4044 65.6204 53.8596 59.0017 58.1517C58.0044 58.7991 57.1717 59.6687 56.5858 60.7026L47.9377 75.9849C47.9183 76.0187 47.8985 76.0511 47.8763 76.0839C46.9524 77.5536 44.7693 77.5212 43.9 75.9849L35.2518 60.7026C34.6674 59.6697 33.8362 58.8005 32.8403 58.1555C26.1264 53.8035 21.7154 46.1981 21.8405 37.5709C22.0274 24.6018 32.6109 14.0198 45.5759 13.8401C59.0698 13.6589 70.0001 24.5361 70.0001 37.926Z" fill="#8526FF"/>
<path d="M69.9999 37.9495C69.9999 46.4641 65.5858 53.9511 58.9152 58.2615C57.91 58.9116 57.0708 59.785 56.4803 60.8233L47.7642 76.1709C47.7448 76.2048 47.7248 76.2373 47.7024 76.2703C47.68 76.2373 47.6606 76.2048 47.6406 76.1709L38.9245 60.8233C38.3355 59.786 37.4978 58.9131 36.4941 58.2654C29.727 53.8948 25.2818 46.2569 25.4079 37.5928C25.588 25.1123 35.3891 14.8345 47.7053 13.8379C60.1856 14.8384 69.9999 25.251 69.9999 37.9495Z" fill="#EDDEFF"/>
<path d="M63.7567 37.9199C63.7567 47.7737 55.7668 55.7577 45.9186 55.7577C36.0671 55.7577 28.0811 47.7718 28.0811 37.9199C28.0811 27.3311 37.2731 19.0268 47.8825 20.1911C56.81 21.1694 63.7567 28.7333 63.7567 37.9199Z" fill="#CFA9FF"/>
<path d="M63.7565 37.9191C63.7565 47.1633 56.731 54.774 47.7022 55.7577C38.674 54.774 31.6484 47.1633 31.6484 37.9191C31.6484 28.6764 38.674 21.0663 47.7022 20.082C56.731 21.0663 63.7565 28.6764 63.7565 37.9191Z" fill="white"/>
<path d="M59.2973 37.9196C59.2973 39.5545 57.9723 40.8781 56.3384 40.8781H49.5874C49.1951 40.8781 48.8776 41.197 48.8776 41.5884V48.3389C48.8776 48.5964 48.8452 48.8459 48.7824 49.0825C48.6486 49.601 48.3772 50.0642 48.0106 50.4322C47.4755 50.9674 46.7356 51.2978 45.9187 51.2978C44.2852 51.2978 42.9602 49.9742 42.9602 48.3389V41.5884C42.9602 41.197 42.6422 40.8781 42.2499 40.8781H35.499C34.6825 40.8781 33.9426 40.5477 33.4075 40.0125C32.8724 39.476 32.5405 38.7376 32.5405 37.9196C32.5405 36.2857 33.8655 34.9607 35.499 34.9607H42.2499C42.6422 34.9607 42.9602 34.6432 42.9602 34.2509V27.4999C42.9602 26.6829 43.2921 25.9431 43.8272 25.408C44.3623 24.8729 45.1022 24.541 45.9187 24.541C47.5526 24.541 48.8776 25.866 48.8776 27.4999V34.2509C48.8776 34.6432 49.1951 34.9607 49.5874 34.9607H56.3384C57.1554 34.9607 57.8952 35.2926 58.4303 35.8277C58.9654 36.3628 59.2973 37.1027 59.2973 37.9196Z" fill="#11BA73"/>
<path d="M59 38.0834C59 39.6822 57.671 40.9766 56.0321 40.9766H49.2605C48.867 40.9766 48.5485 41.2885 48.5485 41.6712V48.2728C48.5485 48.5246 48.516 48.7686 48.453 49C46.1794 48.107 44.5663 46.5181 43 44.7279V41.5C43 41.1173 42.681 40.8053 42.2875 40.8053H40.533C39.7933 39.0706 39 37.3399 39 35.3458C39 35.2941 39 35.2415 39.0029 35.1898H41.9006C42.2941 35.1898 42.6131 34.8793 42.6131 34.4956V27.8936C42.6131 27.0947 42.9459 26.3711 43.4827 25.8478C44.0195 25.3245 44.7616 25 45.5805 25C47.2195 25 48.5485 26.2957 48.5485 27.8936V34.4956C48.5485 34.8793 48.867 35.1898 49.2605 35.1898H56.0321C56.8515 35.1898 57.5936 35.5143 58.1304 36.0376C58.6672 36.561 59 37.2845 59 38.0834Z" fill="#32E198"/>
<path d="M12.0269 44.1614C12.0269 43.6689 11.6407 43.2695 11.1637 43.2695H6.64731C6.17037 43.2695 5.78369 43.6689 5.78369 44.1614C5.78369 44.654 6.17037 45.0533 6.64731 45.0533H11.1637C11.6407 45.0533 12.0269 44.654 12.0269 44.1614Z" fill="#FF7EB8"/>
<path d="M19.1621 57.5403C19.1621 58.0329 19.6167 58.4322 20.1769 58.4322H23.4987C24.0594 58.4322 24.5135 58.0329 24.5135 57.5403C24.5135 57.0478 24.0594 56.6484 23.4987 56.6484H20.1769C19.6167 56.6484 19.1621 57.0478 19.1621 57.5403Z" fill="#8526FF"/>
<path d="M20.0543 50.4053C20.0543 49.9127 19.5863 49.5137 19.0083 49.5137H10.398C9.8201 49.5137 9.35156 49.9127 9.35156 50.4053C9.35156 50.898 9.8201 51.2975 10.398 51.2975H19.0083C19.5863 51.2975 20.0543 50.898 20.0543 50.4053Z" fill="#CFA9FF"/>
<path d="M31.6488 71.3648C31.6488 70.6265 31.2105 70.0273 30.67 70.0273H21.0325C20.492 70.0273 20.0542 70.6265 20.0542 71.3648C20.0542 72.1039 20.492 72.703 21.0325 72.703H30.67C31.2105 72.703 31.6488 72.1039 31.6488 71.3648Z" fill="#A865FF"/>
<path d="M38.6706 75.3789H30.8692C30.3147 75.3789 29.8647 75.7782 29.8647 76.2708C29.8647 76.7634 30.3147 77.1627 30.8692 77.1627H38.6706C39.2256 77.1627 39.6756 76.7634 39.6756 76.2708C39.6756 75.7782 39.2256 75.3789 38.6706 75.3789Z" fill="#8526FF"/>
<path d="M22.7299 64.6753C22.7299 64.1826 22.3312 63.7832 21.8399 63.7832H16.4851C15.9934 63.7832 15.5947 64.1826 15.5947 64.6753C15.5947 65.1676 15.9934 65.567 16.4851 65.567H21.8395C22.3312 65.567 22.7299 65.1676 22.7299 64.6753Z" fill="#CFA9FF"/>
<path d="M27.3418 65.567H31.4967C32.073 65.567 32.5406 65.1676 32.5406 64.6753C32.5406 64.1826 32.073 63.7832 31.4967 63.7832H27.3418C26.765 63.7832 26.2974 64.1826 26.2974 64.6753C26.2974 65.1676 26.765 65.567 27.3418 65.567Z" fill="#FF7EB8"/>
<path d="M14.7027 37.4723C14.7027 36.7332 14.291 36.1348 13.7826 36.1348H4.92053C4.41216 36.1348 4 36.7332 4 37.4723C4 38.2113 4.41216 38.8104 4.92053 38.8104H13.7826C14.291 38.8104 14.7027 38.2113 14.7027 37.4723Z" fill="#8526FF"/>
<defs>
<linearGradient id="paint0_linear" x1="-1.5139" y1="25.6969" x2="78.2768" y2="64.0423" gradientUnits="userSpaceOnUse">
<stop stop-color="#F4EBFF"/>
<stop offset="0.5834" stop-color="#E6D5F4"/>
<stop offset="0.997" stop-color="#FFD9EC"/>
</linearGradient>
</defs>
</svg>
