<svg width="86" height="70" viewBox="0 0 86 70" fill="none" xmlns="http://www.w3.org/2000/svg">
<path d="M79.1932 11.8227C68.2052 3.37509 57.5476 10.2596 45.66 7.82559C33.6863 5.37375 28.916 -2.79021 15.2784 0.978174C3.19779 4.31639 -4.13237 17.6998 2.50878 28.9045C4.40128 32.0974 7.62528 34.5063 8.94282 38.0788C11.0681 43.842 7.83305 48.2666 8.46411 53.9303C11.0864 77.4631 47.0254 68.3478 60.2494 61.0262C80.9885 49.5438 95.0186 23.9896 79.1932 11.8227Z" fill="url(#paint0_linear)"/>
<path opacity="0.1" d="M75.4246 22.8167C75.4246 16.6001 70.3851 11.5605 64.1684 11.5605C59.3523 11.5605 55.2445 14.5864 53.6374 18.8399H12.9349C11.1964 18.8399 9.78711 20.2492 9.78711 21.9877V56.8357C9.78711 58.5742 11.1964 59.9835 12.9349 59.9835H68.3956C70.1342 59.9835 71.5435 58.5742 71.5435 56.8357V31.3163C73.9198 29.2524 75.4246 26.2113 75.4246 22.8167Z" fill="#2626BC"/>
<path d="M68.3958 56.0479H12.9349C11.1964 56.0479 9.78711 54.6386 9.78711 52.9001V18.0521C9.78711 16.3136 11.1964 14.9043 12.9349 14.9043H68.3956C70.1342 14.9043 71.5435 16.3136 71.5435 18.0521V52.9001C71.5436 54.6386 70.1342 56.0479 68.3958 56.0479Z" fill="#DDBFFF"/>
<path d="M71.5431 18.0521V31.3517C69.5678 33.0657 66.9898 34.1045 64.1677 34.1045C57.9508 34.1045 52.9111 29.0648 52.9111 22.8494C52.9111 19.7488 54.1655 16.9394 56.1943 14.9043H68.3953C70.1329 14.9043 71.5431 16.3129 71.5431 18.0521Z" fill="#CBA1FB"/>
<path d="M71.5438 18.0521V22.02L43.5423 43.5306C42.7207 44.1617 41.6993 44.508 40.6652 44.508C39.6311 44.508 38.6097 44.1617 37.7881 43.5306L9.78662 22.02V18.0521C9.78662 16.3129 11.1968 14.9043 12.9344 14.9043H68.3959C70.1335 14.9043 71.5438 16.3129 71.5438 18.0521Z" fill="#CBA1FB"/>
<path d="M41.6232 29.9156L71.5426 52.8987C71.5426 54.6372 70.1334 56.0465 68.3948 56.0465H12.934C11.1954 56.0465 9.78613 54.6372 9.78613 52.8987L39.7056 29.9156C40.2711 29.4812 41.0577 29.4812 41.6232 29.9156Z" fill="#C796FF"/>
<path d="M51.4442 37.4614L43.5416 43.5319C42.72 44.1631 41.6985 44.5093 40.6645 44.5093C39.6304 44.5093 38.609 44.1631 37.7874 43.5319L29.8848 37.4614L39.706 29.9176C40.271 29.4832 41.058 29.4832 41.623 29.9176L51.4442 37.4614Z" fill="#CBA1FB"/>
<path d="M39.7065 41.0353L9.78711 18.0521C9.78711 16.3136 11.1964 14.9043 12.9349 14.9043H68.3956C70.1342 14.9043 71.5435 16.3136 71.5435 18.0521L41.6242 41.0353C41.0587 41.4696 40.272 41.4696 39.7065 41.0353Z" fill="#EEDEFF"/>
<path d="M58.7567 51.8615H53.6991C53.2645 51.8615 52.9121 51.5091 52.9121 51.0746V47.5877C52.9121 47.1532 53.2645 46.8008 53.6991 46.8008H58.7567C59.1912 46.8008 59.5436 47.1532 59.5436 47.5877V51.0746C59.5436 51.5093 59.1912 51.8615 58.7567 51.8615Z" fill="#02FFB3"/>
<path d="M49.4586 48.654H45.078C44.6433 48.654 44.291 48.3016 44.291 47.867C44.291 47.4325 44.6433 47.0801 45.078 47.0801H49.4586C49.8934 47.0801 50.2456 47.4325 50.2456 47.867C50.2456 48.3016 49.8934 48.654 49.4586 48.654Z" fill="white"/>
<path d="M49.4584 51.861H34.0604C33.6257 51.861 33.2734 51.5086 33.2734 51.0741C33.2734 50.6395 33.6257 50.2871 34.0604 50.2871H49.4584C49.8932 50.2871 50.2454 50.6395 50.2454 51.0741C50.2454 51.5086 49.8932 51.861 49.4584 51.861Z" fill="white"/>
<path d="M64.1683 30.1373C70.3849 30.1373 75.4244 25.0977 75.4244 18.8811C75.4244 12.6645 70.3849 7.625 64.1683 7.625C57.9517 7.625 52.9121 12.6645 52.9121 18.8811C52.9121 25.0977 57.9517 30.1373 64.1683 30.1373Z" fill="#00ECA2"/>
<path d="M64.1683 30.9241C70.8088 30.9241 76.2114 25.5216 76.2114 18.881C76.2114 12.2403 70.8089 6.83789 64.1683 6.83789C57.5276 6.83789 52.1252 12.2403 52.1252 18.881C52.1252 22.744 53.9555 26.1855 56.7923 28.3907L41.1445 40.411C40.8626 40.6279 40.4682 40.628 40.1856 40.411L10.6021 17.6859C10.7785 16.5574 11.7575 15.6911 12.9346 15.6911H49.0348C49.4695 15.6911 49.8218 15.3387 49.8218 14.9042C49.8218 14.4696 49.4695 14.1172 49.0348 14.1172H12.9348C10.7651 14.1172 9 15.8824 9 18.052V52.9C9 55.0696 10.7651 56.8348 12.9348 56.8348H68.3955C70.5651 56.8348 72.3303 55.0696 72.3303 52.9V32.1023C72.3303 31.6678 71.978 31.3154 71.5433 31.3154C71.1086 31.3154 70.7564 31.6678 70.7564 32.1023V51.3031L50.1526 35.476L58.1701 29.3173C59.9376 30.3372 61.9851 30.9241 64.1683 30.9241ZM31.1775 35.476L10.5739 51.3031V19.6489L31.1775 35.476ZM70.7252 53.264C70.5492 54.3932 69.5731 55.2609 68.3953 55.2609H12.9348C11.757 55.2609 10.7809 54.3932 10.6049 53.264L32.4695 36.4684L39.227 41.6591C39.6504 41.9843 40.1578 42.147 40.6652 42.147C41.1726 42.147 41.6799 41.9844 42.1035 41.6591L48.8609 36.4682L70.7252 53.264ZM53.6991 18.881C53.6991 13.1084 58.3955 8.4118 64.1683 8.4118C69.9411 8.4118 74.6375 13.1082 74.6375 18.881C74.6375 24.6538 69.9411 29.3502 64.1683 29.3502C58.3955 29.3502 53.6991 24.6536 53.6991 18.881Z" fill="#8526FF"/>
<path d="M59.2552 15.0423L60.8615 18.8809L59.2552 22.7195C58.9824 23.3714 59.6405 24.0246 60.2902 23.747L69.9885 19.6046C70.6256 19.3324 70.6256 18.4293 69.9885 18.1572L60.2902 14.0148C59.6405 13.7372 58.9824 14.3904 59.2552 15.0423Z" fill="white"/>
<path d="M64.5257 19.6147L59.6899 21.6813L60.8612 18.8797L59.6885 16.0781L64.5257 18.1447C65.129 18.4028 65.129 19.3582 64.5257 19.6147Z" fill="#FFDBED"/>
<path d="M52.4423 7.5621C51.8577 7.5621 51.2733 7.33971 50.8286 6.89476C49.9387 6.00487 49.9387 4.55703 50.8286 3.6673C51.718 2.77772 53.1661 2.77741 54.0559 3.6673C54.9457 4.55719 54.9457 6.00503 54.0559 6.89476C53.6111 7.33971 53.0267 7.5621 52.4423 7.5621ZM52.4423 4.57309C52.261 4.57309 52.0795 4.64202 51.9413 4.78021C51.6652 5.05628 51.6652 5.50563 51.9413 5.78185C52.2177 6.05791 52.6666 6.05807 52.9429 5.78185C53.219 5.50579 53.219 5.05643 52.9429 4.78021C52.8049 4.64218 52.6234 4.57309 52.4423 4.57309Z" fill="#FF7EB8"/>
<path d="M34.7689 66.9996C34.1845 66.9996 33.6 66.7771 33.1552 66.3323C32.2653 65.4424 32.2653 63.9945 33.1552 63.1048C34.0448 62.2151 35.4931 62.2151 36.3827 63.1048C37.2726 63.9947 37.2726 65.4425 36.3827 66.3323C35.9379 66.7772 35.3533 66.9996 34.7689 66.9996ZM34.7689 64.0106C34.5876 64.0106 34.4062 64.0795 34.268 64.2177C33.9919 64.4938 33.9919 64.9431 34.268 65.2193C34.5443 65.4956 34.9934 65.4956 35.2698 65.2193C35.5458 64.9433 35.5458 64.4939 35.2698 64.2177C35.1317 64.0797 34.9503 64.0106 34.7689 64.0106Z" fill="#FF7EB8"/>
<path d="M46.7681 9.5885C46.5668 9.5885 46.3652 9.51169 46.2117 9.35808L45.2729 8.4194L44.334 9.35808C44.0269 9.66531 43.5283 9.66531 43.2213 9.35808C42.9139 9.0507 42.9139 8.5524 43.2213 8.24517L44.7165 6.74995C45.0235 6.44272 45.5222 6.44272 45.8292 6.74995L47.3245 8.24517C47.6318 8.55255 47.6318 9.05085 47.3245 9.35808C47.171 9.51154 46.9695 9.5885 46.7681 9.5885Z" fill="#00ECA2"/>
<path d="M69.585 64.0104C69.3837 64.0104 69.182 63.9336 69.0286 63.78L68.0898 62.8413L67.1509 63.78C66.8438 64.0872 66.3452 64.0872 66.0382 63.78C65.7308 63.4726 65.7308 62.9743 66.0382 62.667L67.5334 61.1718C67.8404 60.8646 68.3391 60.8646 68.6461 61.1718L70.1413 62.667C70.4487 62.9744 70.4487 63.4727 70.1413 63.78C69.9879 63.9334 69.7863 64.0104 69.585 64.0104Z" fill="#00ECA2"/>
<path d="M28.5278 64.7584C28.3265 64.7584 28.1249 64.6816 27.9715 64.528L27.0326 63.5893L26.0938 64.528C25.7867 64.8352 25.2881 64.8352 24.981 64.528C24.6736 64.2206 24.6736 63.7223 24.981 63.4151L26.4762 61.9199C26.7833 61.6126 27.2819 61.6126 27.589 61.9199L29.0842 63.4151C29.3916 63.7225 29.3916 64.2208 29.0842 64.528C28.9306 64.6815 28.7291 64.7584 28.5278 64.7584Z" fill="#00ECA2"/>
<defs>
<linearGradient id="paint0_linear" x1="-1.5139" y1="15.1285" x2="78.2768" y2="53.4739" gradientUnits="userSpaceOnUse">
<stop stop-color="#F4EBFF"/>
<stop offset="0.5834" stop-color="#E6D5F4"/>
<stop offset="0.997" stop-color="#FFD9EC"/>
</linearGradient>
</defs>
</svg>
