<svg width="78" height="157" viewBox="0 0 78 157" fill="none" xmlns="http://www.w3.org/2000/svg">
<g opacity="0.2">
<circle cx="2.83795" cy="78.4766" r="2.0057" transform="rotate(-45 2.83795 78.4766)" fill="#2D5EFF"/>
<circle cx="31.2027" cy="106.842" r="2.0057" transform="rotate(-45 31.2027 106.842)" fill="#2D5EFF"/>
<circle cx="59.5674" cy="135.205" r="2.0057" transform="rotate(-45 59.5674 135.205)" fill="#2D5EFF"/>
<circle cx="7.56549" cy="83.2031" r="2.0057" transform="rotate(-45 7.56549 83.2031)" fill="#2D5EFF"/>
<circle cx="35.9297" cy="111.568" r="2.0057" transform="rotate(-45 35.9297 111.568)" fill="#2D5EFF"/>
<circle cx="64.295" cy="139.936" r="2.0057" transform="rotate(-45 64.295 139.936)" fill="#2D5EFF"/>
<circle cx="12.293" cy="87.9297" r="2.0057" transform="rotate(-45 12.293 87.9297)" fill="#2D5EFF"/>
<circle cx="40.6573" cy="116.297" r="2.0057" transform="rotate(-45 40.6573 116.297)" fill="#2D5EFF"/>
<circle cx="69.0225" cy="144.662" r="2.0057" transform="rotate(-45 69.0225 144.662)" fill="#2D5EFF"/>
<circle cx="17.0201" cy="92.6602" r="2.0057" transform="rotate(-45 17.0201 92.6602)" fill="#2D5EFF"/>
<circle cx="45.3848" cy="121.025" r="2.0057" transform="rotate(-45 45.3848 121.025)" fill="#2D5EFF"/>
<circle cx="73.7501" cy="149.389" r="2.0057" transform="rotate(-45 73.7501 149.389)" fill="#2D5EFF"/>
<circle cx="21.7476" cy="97.3867" r="2.0057" transform="rotate(-45 21.7476 97.3867)" fill="#2D5EFF"/>
<circle cx="50.1129" cy="125.752" r="2.0057" transform="rotate(-45 50.1129 125.752)" fill="#2D5EFF"/>
<circle cx="78.4771" cy="154.115" r="2.0057" transform="rotate(-45 78.4771 154.115)" fill="#2D5EFF"/>
<circle cx="26.4752" cy="102.113" r="2.0057" transform="rotate(-45 26.4752 102.113)" fill="#2D5EFF"/>
<circle cx="54.8404" cy="130.479" r="2.0057" transform="rotate(-45 54.8404 130.479)" fill="#2D5EFF"/>
<circle cx="45.3848" cy="35.9277" r="2.0057" transform="rotate(-45 45.3848 35.9277)" fill="#2D5EFF"/>
<circle cx="73.7501" cy="64.293" r="2.0057" transform="rotate(-45 73.7501 64.293)" fill="#2D5EFF"/>
<circle cx="50.1129" cy="40.6562" r="2.0057" transform="rotate(-45 50.1129 40.6562)" fill="#2D5EFF"/>
<circle cx="78.4771" cy="69.0234" r="2.0057" transform="rotate(-45 78.4771 69.0234)" fill="#2D5EFF"/>
<circle cx="54.8404" cy="45.3848" r="2.0057" transform="rotate(-45 54.8404 45.3848)" fill="#2D5EFF"/>
<circle cx="59.5674" cy="50.1113" r="2.0057" transform="rotate(-45 59.5674 50.1113)" fill="#2D5EFF"/>
<circle cx="64.295" cy="54.8398" r="2.0057" transform="rotate(-45 64.295 54.8398)" fill="#2D5EFF"/>
<circle cx="69.0225" cy="59.5664" r="2.0057" transform="rotate(-45 69.0225 59.5664)" fill="#2D5EFF"/>
<circle cx="17.0201" cy="64.293" r="2.0057" transform="rotate(-45 17.0201 64.293)" fill="#2D5EFF"/>
<circle cx="45.3848" cy="92.6602" r="2.0057" transform="rotate(-45 45.3848 92.6602)" fill="#2D5EFF"/>
<circle cx="73.7501" cy="121.025" r="2.0057" transform="rotate(-45 73.7501 121.025)" fill="#2D5EFF"/>
<circle cx="21.7476" cy="69.0234" r="2.0057" transform="rotate(-45 21.7476 69.0234)" fill="#2D5EFF"/>
<circle cx="50.1129" cy="97.3867" r="2.0057" transform="rotate(-45 50.1129 97.3867)" fill="#2D5EFF"/>
<circle cx="78.4771" cy="125.752" r="2.0057" transform="rotate(-45 78.4771 125.752)" fill="#2D5EFF"/>
<circle cx="26.4752" cy="73.75" r="2.0057" transform="rotate(-45 26.4752 73.75)" fill="#2D5EFF"/>
<circle cx="54.8404" cy="102.113" r="2.0057" transform="rotate(-45 54.8404 102.113)" fill="#2D5EFF"/>
<circle cx="31.2027" cy="78.4766" r="2.0057" transform="rotate(-45 31.2027 78.4766)" fill="#2D5EFF"/>
<circle cx="59.5674" cy="106.842" r="2.0057" transform="rotate(-45 59.5674 106.842)" fill="#2D5EFF"/>
<circle cx="35.9297" cy="83.2031" r="2.0057" transform="rotate(-45 35.9297 83.2031)" fill="#2D5EFF"/>
<circle cx="64.295" cy="111.568" r="2.0057" transform="rotate(-45 64.295 111.568)" fill="#2D5EFF"/>
<circle cx="40.6573" cy="87.9297" r="2.0057" transform="rotate(-45 40.6573 87.9297)" fill="#2D5EFF"/>
<circle cx="69.0225" cy="116.297" r="2.0057" transform="rotate(-45 69.0225 116.297)" fill="#2D5EFF"/>
<circle cx="59.5674" cy="21.748" r="2.0057" transform="rotate(-45 59.5674 21.748)" fill="#2D5EFF"/>
<circle cx="64.295" cy="26.4746" r="2.0057" transform="rotate(-45 64.295 26.4746)" fill="#2D5EFF"/>
<circle cx="69.0225" cy="31.2012" r="2.0057" transform="rotate(-45 69.0225 31.2012)" fill="#2D5EFF"/>
<circle cx="73.7501" cy="35.9277" r="2.0057" transform="rotate(-45 73.7501 35.9277)" fill="#2D5EFF"/>
<circle cx="78.4771" cy="40.6562" r="2.0057" transform="rotate(-45 78.4771 40.6562)" fill="#2D5EFF"/>
<circle cx="31.2027" cy="50.1113" r="2.0057" transform="rotate(-45 31.2027 50.1113)" fill="#2D5EFF"/>
<circle cx="59.5674" cy="78.4766" r="2.0057" transform="rotate(-45 59.5674 78.4766)" fill="#2D5EFF"/>
<circle cx="35.9297" cy="54.8398" r="2.0057" transform="rotate(-45 35.9297 54.8398)" fill="#2D5EFF"/>
<circle cx="64.295" cy="83.2031" r="2.0057" transform="rotate(-45 64.295 83.2031)" fill="#2D5EFF"/>
<circle cx="40.6573" cy="59.5664" r="2.0057" transform="rotate(-45 40.6573 59.5664)" fill="#2D5EFF"/>
<circle cx="69.0225" cy="87.9297" r="2.0057" transform="rotate(-45 69.0225 87.9297)" fill="#2D5EFF"/>
<circle cx="45.3848" cy="64.293" r="2.0057" transform="rotate(-45 45.3848 64.293)" fill="#2D5EFF"/>
<circle cx="73.7501" cy="92.6602" r="2.0057" transform="rotate(-45 73.7501 92.6602)" fill="#2D5EFF"/>
<circle cx="50.1129" cy="69.0234" r="2.0057" transform="rotate(-45 50.1129 69.0234)" fill="#2D5EFF"/>
<circle cx="78.4771" cy="97.3867" r="2.0057" transform="rotate(-45 78.4771 97.3867)" fill="#2D5EFF"/>
<circle cx="54.8404" cy="73.75" r="2.0057" transform="rotate(-45 54.8404 73.75)" fill="#2D5EFF"/>
<circle cx="73.7501" cy="7.56445" r="2.0057" transform="rotate(-45 73.7501 7.56445)" fill="#2D5EFF"/>
<circle cx="78.4771" cy="12.291" r="2.0057" transform="rotate(-45 78.4771 12.291)" fill="#2D5EFF"/>
<circle cx="7.56549" cy="73.75" r="2.0057" transform="rotate(-45 7.56549 73.75)" fill="#2D5EFF"/>
<circle cx="35.9297" cy="102.113" r="2.0057" transform="rotate(-45 35.9297 102.113)" fill="#2D5EFF"/>
<circle cx="64.295" cy="130.479" r="2.0057" transform="rotate(-45 64.295 130.479)" fill="#2D5EFF"/>
<circle cx="12.293" cy="78.4766" r="2.0057" transform="rotate(-45 12.293 78.4766)" fill="#2D5EFF"/>
<circle cx="40.6573" cy="106.842" r="2.0057" transform="rotate(-45 40.6573 106.842)" fill="#2D5EFF"/>
<circle cx="69.0225" cy="135.205" r="2.0057" transform="rotate(-45 69.0225 135.205)" fill="#2D5EFF"/>
<circle cx="17.0201" cy="83.2031" r="2.0057" transform="rotate(-45 17.0201 83.2031)" fill="#2D5EFF"/>
<circle cx="45.3848" cy="111.568" r="2.0057" transform="rotate(-45 45.3848 111.568)" fill="#2D5EFF"/>
<circle cx="73.7501" cy="139.936" r="2.0057" transform="rotate(-45 73.7501 139.936)" fill="#2D5EFF"/>
<circle cx="21.7476" cy="87.9297" r="2.0057" transform="rotate(-45 21.7476 87.9297)" fill="#2D5EFF"/>
<circle cx="50.1129" cy="116.297" r="2.0057" transform="rotate(-45 50.1129 116.297)" fill="#2D5EFF"/>
<circle cx="78.4771" cy="144.662" r="2.0057" transform="rotate(-45 78.4771 144.662)" fill="#2D5EFF"/>
<circle cx="26.4752" cy="92.6602" r="2.0057" transform="rotate(-45 26.4752 92.6602)" fill="#2D5EFF"/>
<circle cx="54.8404" cy="121.025" r="2.0057" transform="rotate(-45 54.8404 121.025)" fill="#2D5EFF"/>
<circle cx="31.2027" cy="97.3867" r="2.0057" transform="rotate(-45 31.2027 97.3867)" fill="#2D5EFF"/>
<circle cx="59.5674" cy="125.752" r="2.0057" transform="rotate(-45 59.5674 125.752)" fill="#2D5EFF"/>
<circle cx="50.1129" cy="31.2012" r="2.0057" transform="rotate(-45 50.1129 31.2012)" fill="#2D5EFF"/>
<circle cx="78.4771" cy="59.5664" r="2.0057" transform="rotate(-45 78.4771 59.5664)" fill="#2D5EFF"/>
<circle cx="54.8404" cy="35.9277" r="2.0057" transform="rotate(-45 54.8404 35.9277)" fill="#2D5EFF"/>
<circle cx="59.5674" cy="40.6562" r="2.0057" transform="rotate(-45 59.5674 40.6562)" fill="#2D5EFF"/>
<circle cx="64.295" cy="45.3848" r="2.0057" transform="rotate(-45 64.295 45.3848)" fill="#2D5EFF"/>
<circle cx="69.0225" cy="50.1113" r="2.0057" transform="rotate(-45 69.0225 50.1113)" fill="#2D5EFF"/>
<circle cx="73.7501" cy="54.8398" r="2.0057" transform="rotate(-45 73.7501 54.8398)" fill="#2D5EFF"/>
<circle cx="21.7476" cy="59.5664" r="2.0057" transform="rotate(-45 21.7476 59.5664)" fill="#2D5EFF"/>
<circle cx="50.1129" cy="87.9297" r="2.0057" transform="rotate(-45 50.1129 87.9297)" fill="#2D5EFF"/>
<circle cx="78.4771" cy="116.297" r="2.0057" transform="rotate(-45 78.4771 116.297)" fill="#2D5EFF"/>
<circle cx="26.4752" cy="64.293" r="2.0057" transform="rotate(-45 26.4752 64.293)" fill="#2D5EFF"/>
<circle cx="54.8404" cy="92.6602" r="2.0057" transform="rotate(-45 54.8404 92.6602)" fill="#2D5EFF"/>
<circle cx="31.2027" cy="69.0234" r="2.0057" transform="rotate(-45 31.2027 69.0234)" fill="#2D5EFF"/>
<circle cx="59.5674" cy="97.3867" r="2.0057" transform="rotate(-45 59.5674 97.3867)" fill="#2D5EFF"/>
<circle cx="35.9297" cy="73.75" r="2.0057" transform="rotate(-45 35.9297 73.75)" fill="#2D5EFF"/>
<circle cx="64.295" cy="102.113" r="2.0057" transform="rotate(-45 64.295 102.113)" fill="#2D5EFF"/>
<circle cx="40.6573" cy="78.4766" r="2.0057" transform="rotate(-45 40.6573 78.4766)" fill="#2D5EFF"/>
<circle cx="69.0225" cy="106.842" r="2.0057" transform="rotate(-45 69.0225 106.842)" fill="#2D5EFF"/>
<circle cx="45.3848" cy="83.2031" r="2.0057" transform="rotate(-45 45.3848 83.2031)" fill="#2D5EFF"/>
<circle cx="73.7501" cy="111.568" r="2.0057" transform="rotate(-45 73.7501 111.568)" fill="#2D5EFF"/>
<circle cx="64.295" cy="17.0176" r="2.0057" transform="rotate(-45 64.295 17.0176)" fill="#2D5EFF"/>
<circle cx="69.0225" cy="21.748" r="2.0057" transform="rotate(-45 69.0225 21.748)" fill="#2D5EFF"/>
<circle cx="73.7501" cy="26.4746" r="2.0057" transform="rotate(-45 73.7501 26.4746)" fill="#2D5EFF"/>
<circle cx="78.4771" cy="31.2012" r="2.0057" transform="rotate(-45 78.4771 31.2012)" fill="#2D5EFF"/>
<circle cx="35.9297" cy="45.3848" r="2.0057" transform="rotate(-45 35.9297 45.3848)" fill="#2D5EFF"/>
<circle cx="64.295" cy="73.75" r="2.0057" transform="rotate(-45 64.295 73.75)" fill="#2D5EFF"/>
<circle cx="40.6573" cy="50.1113" r="2.0057" transform="rotate(-45 40.6573 50.1113)" fill="#2D5EFF"/>
<circle cx="69.0225" cy="78.4766" r="2.0057" transform="rotate(-45 69.0225 78.4766)" fill="#2D5EFF"/>
<circle cx="45.3848" cy="54.8398" r="2.0057" transform="rotate(-45 45.3848 54.8398)" fill="#2D5EFF"/>
<circle cx="73.7501" cy="83.2031" r="2.0057" transform="rotate(-45 73.7501 83.2031)" fill="#2D5EFF"/>
<circle cx="50.1129" cy="59.5664" r="2.0057" transform="rotate(-45 50.1129 59.5664)" fill="#2D5EFF"/>
<circle cx="78.4771" cy="87.9297" r="2.0057" transform="rotate(-45 78.4771 87.9297)" fill="#2D5EFF"/>
<circle cx="54.8404" cy="64.293" r="2.0057" transform="rotate(-45 54.8404 64.293)" fill="#2D5EFF"/>
<circle cx="59.5674" cy="69.0234" r="2.0057" transform="rotate(-45 59.5674 69.0234)" fill="#2D5EFF"/>
<circle cx="78.4771" cy="2.83789" r="2.0057" transform="rotate(-45 78.4771 2.83789)" fill="#2D5EFF"/>
<circle cx="12.293" cy="69.0234" r="2.0057" transform="rotate(-45 12.293 69.0234)" fill="#2D5EFF"/>
<circle cx="40.6573" cy="97.3867" r="2.0057" transform="rotate(-45 40.6573 97.3867)" fill="#2D5EFF"/>
<circle cx="69.0225" cy="125.752" r="2.0057" transform="rotate(-45 69.0225 125.752)" fill="#2D5EFF"/>
<circle cx="17.0201" cy="73.75" r="2.0057" transform="rotate(-45 17.0201 73.75)" fill="#2D5EFF"/>
<circle cx="45.3848" cy="102.113" r="2.0057" transform="rotate(-45 45.3848 102.113)" fill="#2D5EFF"/>
<circle cx="73.7501" cy="130.479" r="2.0057" transform="rotate(-45 73.7501 130.479)" fill="#2D5EFF"/>
<circle cx="21.7476" cy="78.4766" r="2.0057" transform="rotate(-45 21.7476 78.4766)" fill="#2D5EFF"/>
<circle cx="50.1129" cy="106.842" r="2.0057" transform="rotate(-45 50.1129 106.842)" fill="#2D5EFF"/>
<circle cx="78.4771" cy="135.205" r="2.0057" transform="rotate(-45 78.4771 135.205)" fill="#2D5EFF"/>
<circle cx="26.4752" cy="83.2031" r="2.0057" transform="rotate(-45 26.4752 83.2031)" fill="#2D5EFF"/>
<circle cx="54.8404" cy="111.568" r="2.0057" transform="rotate(-45 54.8404 111.568)" fill="#2D5EFF"/>
<circle cx="31.2027" cy="87.9297" r="2.0057" transform="rotate(-45 31.2027 87.9297)" fill="#2D5EFF"/>
<circle cx="59.5674" cy="116.297" r="2.0057" transform="rotate(-45 59.5674 116.297)" fill="#2D5EFF"/>
<circle cx="35.9297" cy="92.6602" r="2.0057" transform="rotate(-45 35.9297 92.6602)" fill="#2D5EFF"/>
<circle cx="64.295" cy="121.025" r="2.0057" transform="rotate(-45 64.295 121.025)" fill="#2D5EFF"/>
<circle cx="54.8404" cy="26.4746" r="2.0057" transform="rotate(-45 54.8404 26.4746)" fill="#2D5EFF"/>
<circle cx="59.5674" cy="31.2012" r="2.0057" transform="rotate(-45 59.5674 31.2012)" fill="#2D5EFF"/>
<circle cx="64.295" cy="35.9277" r="2.0057" transform="rotate(-45 64.295 35.9277)" fill="#2D5EFF"/>
<circle cx="69.0225" cy="40.6562" r="2.0057" transform="rotate(-45 69.0225 40.6562)" fill="#2D5EFF"/>
<circle cx="73.7501" cy="45.3848" r="2.0057" transform="rotate(-45 73.7501 45.3848)" fill="#2D5EFF"/>
<circle cx="78.4771" cy="50.1113" r="2.0057" transform="rotate(-45 78.4771 50.1113)" fill="#2D5EFF"/>
<circle cx="26.4752" cy="54.8398" r="2.0057" transform="rotate(-45 26.4752 54.8398)" fill="#2D5EFF"/>
<circle cx="54.8404" cy="83.2031" r="2.0057" transform="rotate(-45 54.8404 83.2031)" fill="#2D5EFF"/>
<circle cx="31.2027" cy="59.5664" r="2.0057" transform="rotate(-45 31.2027 59.5664)" fill="#2D5EFF"/>
<circle cx="59.5674" cy="87.9297" r="2.0057" transform="rotate(-45 59.5674 87.9297)" fill="#2D5EFF"/>
<circle cx="35.9297" cy="64.293" r="2.0057" transform="rotate(-45 35.9297 64.293)" fill="#2D5EFF"/>
<circle cx="64.295" cy="92.6602" r="2.0057" transform="rotate(-45 64.295 92.6602)" fill="#2D5EFF"/>
<circle cx="40.6573" cy="69.0234" r="2.0057" transform="rotate(-45 40.6573 69.0234)" fill="#2D5EFF"/>
<circle cx="69.0225" cy="97.3867" r="2.0057" transform="rotate(-45 69.0225 97.3867)" fill="#2D5EFF"/>
<circle cx="45.3848" cy="73.75" r="2.0057" transform="rotate(-45 45.3848 73.75)" fill="#2D5EFF"/>
<circle cx="73.7501" cy="102.113" r="2.0057" transform="rotate(-45 73.7501 102.113)" fill="#2D5EFF"/>
<circle cx="50.1129" cy="78.4766" r="2.0057" transform="rotate(-45 50.1129 78.4766)" fill="#2D5EFF"/>
<circle cx="78.4771" cy="106.842" r="2.0057" transform="rotate(-45 78.4771 106.842)" fill="#2D5EFF"/>
<circle cx="69.0225" cy="12.291" r="2.0057" transform="rotate(-45 69.0225 12.291)" fill="#2D5EFF"/>
<circle cx="73.7501" cy="17.0176" r="2.0057" transform="rotate(-45 73.7501 17.0176)" fill="#2D5EFF"/>
<circle cx="78.4771" cy="21.748" r="2.0057" transform="rotate(-45 78.4771 21.748)" fill="#2D5EFF"/>
<circle cx="40.6573" cy="40.6562" r="2.0057" transform="rotate(-45 40.6573 40.6562)" fill="#2D5EFF"/>
<circle cx="69.0225" cy="69.0234" r="2.0057" transform="rotate(-45 69.0225 69.0234)" fill="#2D5EFF"/>
<circle cx="45.3848" cy="45.3848" r="2.0057" transform="rotate(-45 45.3848 45.3848)" fill="#2D5EFF"/>
<circle cx="73.7501" cy="73.75" r="2.0057" transform="rotate(-45 73.7501 73.75)" fill="#2D5EFF"/>
<circle cx="50.1129" cy="50.1113" r="2.0057" transform="rotate(-45 50.1129 50.1113)" fill="#2D5EFF"/>
<circle cx="78.4771" cy="78.4766" r="2.0057" transform="rotate(-45 78.4771 78.4766)" fill="#2D5EFF"/>
<circle cx="54.8404" cy="54.8398" r="2.0057" transform="rotate(-45 54.8404 54.8398)" fill="#2D5EFF"/>
<circle cx="59.5674" cy="59.5664" r="2.0057" transform="rotate(-45 59.5674 59.5664)" fill="#2D5EFF"/>
<circle cx="64.295" cy="64.293" r="2.0057" transform="rotate(-45 64.295 64.293)" fill="#2D5EFF"/>
</g>
</svg>
